<svg version="1.2" baseProfile="tiny-ps" xmlns="http://www.w3.org/2000/svg" viewBox="0 0 16 14" width="16" height="14">
	<title>Header</title>
	<style>
		tspan { white-space:pre }
		.shp0 { fill: #ffffff } 
	</style>
	<g id="Header">
		<g id="Social">
			<g id="FA Vector Icons">
				<path id="icon-twitter" class="shp0" d="M15.5 2.04C14.95 2.3 14.35 2.48 13.73 2.55C14.37 2.15 14.85 1.51 15.08 0.74C14.49 1.12 13.83 1.39 13.13 1.54C12.57 0.9 11.77 0.5 10.89 0.5C9.18 0.5 7.81 1.97 7.81 3.78C7.81 4.03 7.84 4.29 7.89 4.53C5.34 4.39 3.06 3.09 1.55 1.1C1.28 1.59 1.13 2.15 1.13 2.75C1.13 3.89 1.67 4.9 2.5 5.49C1.99 5.47 1.52 5.31 1.11 5.07L1.11 5.11C1.11 6.71 2.17 8.03 3.57 8.33C3.32 8.4 3.04 8.44 2.77 8.44C2.57 8.44 2.38 8.42 2.18 8.39C2.58 9.69 3.71 10.64 5.06 10.67C4 11.55 2.68 12.07 1.24 12.07C0.99 12.07 0.75 12.06 0.5 12.03C1.86 12.96 3.48 13.5 5.22 13.5C10.88 13.5 13.97 8.5 13.97 4.17C13.97 4.02 13.97 3.88 13.96 3.74C14.56 3.27 15.08 2.69 15.5 2.04L15.5 2.04Z" />
			</g>
		</g>
	</g>
</svg>