<svg version="1.2" baseProfile="tiny-ps" xmlns="http://www.w3.org/2000/svg" viewBox="0 0 16 16" width="16" height="16">
	<title>Header</title>
	<style>
		tspan { white-space:pre }
		.shp0 { fill: #ffffff } 
	</style>
	<g id="Header">
		<g id="Social">
			<g id="FA Vector Icons">
				<path id="icon-google-plus" class="shp0" d="M8.59 12.77C8.59 14.31 6.88 14.84 5.82 14.84C4.2 14.84 1.77 14.19 1.77 12.5C1.77 10.67 4.51 10.22 6.05 10.22C6.17 10.22 6.28 10.22 6.41 10.24C7.22 10.86 8.59 11.54 8.59 12.77L8.59 12.77ZM7.34 4.82C7.34 5.77 6.88 6.54 5.9 6.54C4.12 6.54 2.99 4.68 2.99 3.33C2.99 2.19 3.71 1.1 5.19 1.1C6.63 1.1 7.34 3.5 7.34 4.82L7.34 4.82ZM6.28 0.5C5.83 0.5 5.3 0.56 4.61 0.67C2.57 1 1.19 2.51 1.19 4.33C1.19 5.89 2.8 7.2 4.98 7.2C5.24 7.2 5.5 7.18 5.68 7.14C5.61 7.47 5.52 7.69 5.52 8.03C5.52 8.6 5.74 9.12 5.98 9.56C3.93 9.61 1.14 10.12 0.34 11.72C0.15 12.09 0 12.49 0 12.91C0 14.93 2.23 15.5 4.67 15.5C6.14 15.5 7.4 15.27 8.59 14.5C9.38 13.85 9.89 13.03 9.89 12.02C9.89 9.4 6.93 8.88 6.93 7.56C6.93 6.25 9.19 6.09 9.19 4.01C9.19 2.89 8.72 1.75 7.71 1.16L8.33 1.16L9.84 0.5L6.28 0.5L6.28 0.5ZM16 2.83L13.63 2.83L13.63 0.5L12.36 0.5L12.36 2.83L9.95 2.83L9.95 4.11L12.36 4.11L12.36 6.1L13.63 6.1L13.63 4.11L16 4.11L16 2.83L16 2.83Z" />
			</g>
		</g>
	</g>
</svg>